<?xml version="1.0" encoding="UTF-8" standalone="no"?>
<svg xmlns:svg="http://www.w3.org/2000/svg"
xmlns="http://www.w3.org/2000/svg" version="1.1"
width="360" height="185">
<!-- Created with the Wikimedia parliament diagram creator (http://tools.wmflabs.org/parliamentdiagram/parliamentinputform.html) -->
<g>
<text x="175" y="175" style="font-size:36px;font-weight:bold;text-align:center;text-anchor:middle;font-family:Sans">120</text>
  <g style="fill:#8B0000" id="PCCh">
    <circle cx="13.47" cy="173.34" r="6.67"/>
    <circle cx="30.15" cy="173.34" r="6.67"/>
    <circle cx="46.83" cy="173.34" r="6.67"/>
    <circle cx="63.52" cy="173.34" r="6.67"/>
    <circle cx="80.22" cy="173.34" r="6.67"/>
    <circle cx="96.93" cy="173.35" r="6.67"/>
  </g>
  <g style="fill:#800080" id="IC">
    <circle cx="15.40" cy="153.82" r="6.67"/>
  </g>
  <g style="fill:#FF0000" id="PS">
    <circle cx="32.35" cy="153.57" r="6.67"/>
    <circle cx="49.38" cy="153.24" r="6.67"/>
    <circle cx="66.28" cy="153.94" r="6.67"/>
    <circle cx="83.55" cy="153.60" r="6.67"/>
    <circle cx="19.62" cy="134.66" r="6.67"/>
    <circle cx="37.14" cy="134.26" r="6.67"/>
    <circle cx="101.12" cy="153.12" r="6.67"/>
    <circle cx="54.94" cy="133.76" r="6.67"/>
    <circle cx="26.06" cy="116.13" r="6.67"/>
    <circle cx="72.25" cy="135.27" r="6.67"/>
    <circle cx="44.45" cy="115.75" r="6.67"/>
    <circle cx="90.74" cy="134.91" r="6.67"/>
    <circle cx="63.39" cy="115.35" r="6.67"/>
    <circle cx="34.62" cy="98.49" r="6.67"/>
    <circle cx="81.26" cy="117.86" r="6.67"/>
    <circle cx="54.15" cy="98.38" r="6.67"/>
  </g>
  <g style="fill:#008080" id="PR">
    <circle cx="110.15" cy="134.55" r="6.67"/>
    <circle cx="45.21" cy="81.98" r="6.67"/>
    <circle cx="74.53" cy="98.43" r="6.67"/>
    <circle cx="101.51" cy="118.04" r="6.67"/>
    <circle cx="66.06" cy="82.44" r="6.67"/>
    <circle cx="93.05" cy="102.21" r="6.67"/>
  </g>
  <g style="fill:#FFA500" id="PPD">
    <circle cx="57.66" cy="66.82" r="6.67"/>
    <circle cx="88.10" cy="83.39" r="6.67"/>
    <circle cx="123.48" cy="118.77" r="6.67"/>
    <circle cx="79.97" cy="68.22" r="6.67"/>
    <circle cx="71.80" cy="53.23" r="6.67"/>
    <circle cx="115.43" cy="103.64" r="6.67"/>
    <circle cx="107.30" cy="88.75" r="6.67"/>
    <circle cx="103.80" cy="70.59" r="6.67"/>
    <circle cx="95.64" cy="55.97" r="6.67"/>
    <circle cx="87.44" cy="41.40" r="6.67"/>
    <circle cx="123.60" cy="77.87" r="6.67"/>
    <circle cx="131.94" cy="92.31" r="6.67"/>
    <circle cx="140.27" cy="106.75" r="6.67"/>
    <circle cx="104.37" cy="31.48" r="6.67"/>
  </g>
  <g style="fill:#1E90FF" id="PDC">
    <circle cx="112.80" cy="45.90" r="6.67"/>
    <circle cx="121.26" cy="60.30" r="6.67"/>
    <circle cx="122.34" cy="23.63" r="6.67"/>
    <circle cx="141.49" cy="69.87" r="6.67"/>
    <circle cx="131.14" cy="38.18" r="6.67"/>
    <circle cx="140.07" cy="52.79" r="6.67"/>
    <circle cx="150.37" cy="84.49" r="6.67"/>
    <circle cx="159.51" cy="99.23" r="6.67"/>
    <circle cx="141.11" cy="17.93" r="6.67"/>
    <circle cx="150.33" cy="32.96" r="6.67"/>
    <circle cx="160.47" cy="64.98" r="6.67"/>
    <circle cx="159.80" cy="48.21" r="6.67"/>
    <circle cx="160.42" cy="14.49" r="6.67"/>
    <circle cx="169.99" cy="80.50" r="6.67"/>
    <circle cx="170.05" cy="30.33" r="6.67"/>
    <circle cx="180.00" cy="13.33" r="6.67"/>
    <circle cx="180.00" cy="46.67" r="6.67"/>
    <circle cx="180.00" cy="63.33" r="6.67"/>
    <circle cx="180.00" cy="96.67" r="6.67"/>
    <circle cx="189.95" cy="30.33" r="6.67"/>
  </g>
  <g style="fill:#FFCCAA" id="NM">
    <circle cx="190.01" cy="80.50" r="6.67"/>
    <circle cx="199.58" cy="14.49" r="6.67"/>
    <circle cx="200.20" cy="48.21" r="6.67"/>
    <circle cx="199.53" cy="64.98" r="6.67"/>
  </g>
  <g style="fill:#1D4C4F" id="RD">
    <circle cx="209.67" cy="32.96" r="6.67"/>
  </g>
  <g style="fill:#DDFF55" id="PL">
    <circle cx="218.89" cy="17.93" r="6.67"/>
  </g>
  <g style="fill:#009987" id="MIRAS">
    <circle cx="200.49" cy="99.23" r="6.67"/>
  </g>
  <g style="fill:#808080" id="Indep">
    <circle cx="209.63" cy="84.49" r="6.67"/>
  </g>
  <g style="fill:#F0CF00" id="AMPL">
    <circle cx="219.93" cy="52.79" r="6.67"/>
    <circle cx="228.86" cy="38.18" r="6.67"/>
  </g>
  <g style="fill:#AFEEEE" id="CV">
    <circle cx="218.51" cy="69.87" r="6.67"/>
    <circle cx="237.66" cy="23.63" r="6.67"/>
    <circle cx="238.74" cy="60.30" r="6.67"/>
    <circle cx="247.20" cy="45.90" r="6.67"/>
    <circle cx="255.63" cy="31.48" r="6.67"/>
    <circle cx="219.73" cy="106.75" r="6.67"/>
  </g>
  <g style="fill:#00BFFF" id="EVOPOLI">
    <circle cx="228.06" cy="92.31" r="6.67"/>
  </g>
  <g style="fill:#135BB8" id="RN">
    <circle cx="236.40" cy="77.87" r="6.67"/>
    <circle cx="272.56" cy="41.40" r="6.67"/>
    <circle cx="264.36" cy="55.97" r="6.67"/>
    <circle cx="256.20" cy="70.59" r="6.67"/>
    <circle cx="252.70" cy="88.75" r="6.67"/>
    <circle cx="244.57" cy="103.64" r="6.67"/>
    <circle cx="288.20" cy="53.23" r="6.67"/>
    <circle cx="280.03" cy="68.22" r="6.67"/>
    <circle cx="236.52" cy="118.77" r="6.67"/>
    <circle cx="271.90" cy="83.39" r="6.67"/>
    <circle cx="302.34" cy="66.82" r="6.67"/>
    <circle cx="266.95" cy="102.21" r="6.67"/>
    <circle cx="293.94" cy="82.44" r="6.67"/>
  </g>
  <g style="fill:#00008B" id="UDI">
    <circle cx="258.49" cy="118.04" r="6.67"/>
    <circle cx="285.47" cy="98.43" r="6.67"/>
    <circle cx="314.79" cy="81.98" r="6.67"/>
    <circle cx="249.85" cy="134.55" r="6.67"/>
    <circle cx="305.85" cy="98.38" r="6.67"/>
    <circle cx="278.74" cy="117.86" r="6.67"/>
    <circle cx="325.38" cy="98.49" r="6.67"/>
    <circle cx="296.61" cy="115.35" r="6.67"/>
    <circle cx="269.26" cy="134.91" r="6.67"/>
    <circle cx="315.55" cy="115.75" r="6.67"/>
    <circle cx="287.75" cy="135.27" r="6.67"/>
    <circle cx="333.94" cy="116.13" r="6.67"/>
    <circle cx="305.06" cy="133.76" r="6.67"/>
    <circle cx="258.88" cy="153.12" r="6.67"/>
    <circle cx="322.86" cy="134.26" r="6.67"/>
    <circle cx="340.38" cy="134.66" r="6.67"/>
    <circle cx="276.45" cy="153.60" r="6.67"/>
    <circle cx="293.72" cy="153.94" r="6.67"/>
    <circle cx="310.62" cy="153.24" r="6.67"/>
    <circle cx="327.65" cy="153.57" r="6.67"/>
    <circle cx="344.60" cy="153.82" r="6.67"/>
    <circle cx="263.07" cy="173.35" r="6.67"/>
    <circle cx="279.78" cy="173.34" r="6.67"/>
    <circle cx="296.48" cy="173.34" r="6.67"/>
    <circle cx="313.17" cy="173.34" r="6.67"/>
    <circle cx="329.85" cy="173.34" r="6.67"/>
    <circle cx="346.53" cy="173.34" r="6.67"/>
  </g>
</g>
</svg>
